<svg version="1" xmlns="http://www.w3.org/2000/svg" width="170.667" height="170.667" viewBox="0 0 128.000000 128.000000"><path d="M6.3 2C-.2 5.9 0 4.3 0 64.2c0 52.1.1 54.4 2 57.5 3.9 6.5 2.3 6.3 62 6.3s58.1.2 62-6.3c1.9-3.1 2-5.4 2-57.5 0-59.9.2-58.3-6.3-62.2-3.1-1.9-5.4-2-57.7-2C11.7 0 9.4.1 6.3 2zm54.9 30.3c1 1.1 1.8 1.1 4.7.1 2-.7 5.3-1.3 7.3-1.4 5 0 5.6 1.4 10.2 21.8C87.8 72.2 89.8 79 90.9 79c2.3 0 10.1-22.2 10.1-28.9 0-3.8-2.1-9.1-4.3-11-1-.7-1.7-1.9-1.7-2.6 0-1.9 7.7-4.9 12.8-4.9 4.6-.1 4.7 0 5 3.3.8 8.6-6 29.1-15.6 46.8-6.9 12.8-10.9 17.8-12.8 16.2-2.2-1.8-5.3-11.3-9.5-28.9-2.2-9.1-4.9-19.2-6-22.6-2.2-6.7-6.1-11.5-7.5-9.2-.5.7-1 14.1-1.1 29.8l-.1 28.5-3.4 1.2c-4.6 1.6-6.4 1.6-8.3-.3-1.4-1.4-1.5-3.6-.9-17l.7-15.4H32.7l.6 15 .7 15-2.4 1.5c-1.3.9-4.4 1.7-6.8 1.8-4 .2-4.3 0-4.1-2.3.1-1.4.5-8.9.9-16.8l.7-14.2h-3.1c-2.2 0-3.2-.5-3.2-1.5 0-1.6 3-5 5.1-5.7 1-.3 1.1-2.1.2-9.4-.6-4.9-1.4-9.9-1.8-11.1-.6-1.9-.2-2.3 3.2-3.2 2.1-.6 5.5-1.1 7.7-1.1h3.8l-.7 12.5-.7 12.5H48V45.5c0-6.3.1-11.5.3-11.5.1 0 2-.7 4.2-1.5 5.1-1.8 7.1-1.8 8.7-.2z"/></svg>